<svg class="icon" viewBox="0 0 1024 1024" xmlns="http://www.w3.org/2000/svg" width="32" height="32"><defs><style/></defs><path d="M749.248 704H864a32 32 0 100-64H672a32 32 0 00-32 32v192a32 32 0 1064 0V749.248l137.36 137.36a32 32 0 1045.232-45.264L749.248 704zM320 749.248V864a32 32 0 1064 0V672a32 32 0 00-32-32H160a32 32 0 100 64h114.752l-137.36 137.36a32 32 0 1045.264 45.232L320 749.248zM749.248 320H864a32 32 0 110 64H672a32 32 0 01-32-32V160a32 32 0 1164 0v114.752l137.36-137.36a32 32 0 1145.232 45.264L749.248 320zM320 274.752V160a32 32 0 1164 0v192a32 32 0 01-32 32H160a32 32 0 110-64h114.752l-137.36-137.36a32 32 0 1145.264-45.232L320 274.752z"/></svg>