<svg class="icon" viewBox="0 0 1024 1024" xmlns="http://www.w3.org/2000/svg" width="32" height="32"><defs><style/></defs><path d="M237.248 192H352a32 32 0 100-64H160a32 32 0 00-32 32v192a32 32 0 1064 0V237.248l137.36 137.36a32 32 0 1045.232-45.264L237.248 192zM832 237.248V352a32 32 0 1064 0V160a32 32 0 00-32-32H672a32 32 0 100 64h114.752l-137.36 137.36a32 32 0 1045.264 45.232L832 237.248zM237.248 832H352a32 32 0 110 64H160a32 32 0 01-32-32V672a32 32 0 1164 0v114.752l137.36-137.36a32 32 0 1145.232 45.264L237.248 832zM832 786.752V672a32 32 0 1164 0v192a32 32 0 01-32 32H672a32 32 0 110-64h114.752l-137.36-137.36a32 32 0 1145.264-45.232L832 786.752z"/></svg>