<svg class="icon" viewBox="0 0 1024 1024" width="200" height="200"><defs/><path d="M840.262 734.73l-63.256-111.409.112-232.776c.024-48.537-17.585-99.718-49.58-144.111-32.548-45.162-78.257-80.515-128.703-99.54a18.7 18.7 0 00-.888-.31 403.507 403.507 0 00-11.772-3.565l.002-7.76c.021-41.998-34.131-76.181-76.127-76.202-42.004-.018-76.187 34.13-76.208 76.128l-.002 7.196c-5.887 1.68-9.616 2.87-10.042 3.011-.223.069-.445.15-.664.225-51.233 18.528-97.759 53.798-131.005 99.31-32.636 44.682-50.622 96.306-50.646 145.359l-.112 232.775-67.805 119.197c-8.158 14.205-8.117 31.9.117 46.18 8.186 14.188 23.509 23.003 39.997 23.014l167.414.079c9.563 62.347 63.555 110.261 128.536 110.295 64.984.034 119.017-47.83 128.644-110.17l167.386.082c25.52.014 46.287-20.713 46.302-46.195.006-11.57-4.129-22.388-11.7-30.811v-.001M510.149 101.917c17.269.008 31.41 13.63 32.26 30.69a265.056 265.056 0 00-10.94-1.849 17.812 17.812 0 00-4.645-.06c-.628-.093-1.266-.188-1.918-.287-4.51-.685-9.618-1.46-15.318-1.463-5.691-.001-10.801.767-15.308 1.444-.55.085-1.095.168-1.635.242a17.739 17.739 0 00-4.822.01 262.81 262.81 0 00-9.94 1.602c1.03-16.899 15.104-30.338 32.264-30.33l.002.001m-.886 769.405c-35.305-.018-64.9-24.828-72.346-57.92l144.748.07c-7.478 33.083-37.095 57.865-72.402 57.85m272.22-124.547l-542.595-.265c-2.136 0-4.095-1.096-5.112-2.856-1.082-1.876-1.107-4.164-.04-6.033l64.57-113.507a18.258 18.258 0 002.382-9l.105-218.178c.04-78.867 61.112-160.435 142.121-189.881 2.657-.84 23.61-7.333 44.738-10.797a18.23 18.23 0 003.831.01c2.84-.283 5.484-.683 8.041-1.064 3.88-.582 7.228-1.087 10.376-1.087 3.15.001 6.5.51 10.382 1.097 2.553.382 5.191.786 8.031 1.07a18.051 18.051 0 003.47.026c21.921 3.682 44.294 10.699 47.668 11.774 79.548 30.207 139.448 111.4 139.41 189.056l-.106 218.177a18.23 18.23 0 002.382 9.007l61.467 108.263a18.133 18.133 0 003.18 4.108c1.082 1.043 1.677 2.523 1.68 4.163-.008 3.322-2.63 5.924-5.982 5.922l.001-.005m24.196 25.206"/></svg>