<?xml version="1.0" standalone="no"?><!DOCTYPE svg PUBLIC "-//W3C//DTD SVG 1.1//EN" "http://www.w3.org/Graphics/SVG/1.1/DTD/svg11.dtd"><svg t="1608177269509" class="icon" viewBox="0 0 1024 1024" version="1.1" xmlns="http://www.w3.org/2000/svg" p-id="2718" xmlns:xlink="http://www.w3.org/1999/xlink" width="200" height="200"><defs><style type="text/css"></style></defs><path d="M512 64a448 448 0 1 1-448 448 448 448 0 0 1 448-448m0-64a512 512 0 1 0 512 512 512 512 0 0 0-512-512z" p-id="2719"></path><path d="M739.84 566.4a31.36 31.36 0 0 0-45.44-44.16l-134.4 139.52V320a32 32 0 0 0-64 0v346.24L348.16 522.88a32 32 0 0 0-44.8 45.44l223.36 219.52 15.36-16 28.8-28.8 167.68-173.44z" p-id="2720"></path></svg>